<?xml version="1.0" encoding="UTF-8"?>
<!--Generator: Apple Native CoreSVG 232.5-->
<!DOCTYPE svg
PUBLIC "-//W3C//DTD SVG 1.1//EN"
       "http://www.w3.org/Graphics/SVG/1.1/DTD/svg11.dtd">
<svg version="1.1" xmlns="http://www.w3.org/2000/svg" xmlns:xlink="http://www.w3.org/1999/xlink" width="15.7715" height="16.6504">
 <g>
  <rect height="16.6504" opacity="0" width="15.7715" x="0" y="0"/>
  <path d="M7.88086 16.2012C12.1875 16.2012 15.7715 12.627 15.7715 8.32031C15.7715 6.03516 14.7559 3.98438 13.2617 2.59766C12.5 1.89453 11.5039 2.93945 12.2656 3.66211C13.5059 4.82422 14.2676 6.47461 14.2773 8.32031C14.2871 11.875 11.4355 14.7168 7.88086 14.7168C4.33594 14.7168 1.50391 11.875 1.50391 8.32031C1.51367 6.45508 2.27539 4.81445 3.50586 3.65234C4.27734 2.91992 3.27148 1.88477 2.50977 2.58789C1.01562 3.97461 0 6.03516 0 8.32031C0 12.627 3.58398 16.2012 7.88086 16.2012ZM7.88086 8.26172C8.31055 8.26172 8.58398 7.96875 8.58398 7.51953L8.58398 0.751953C8.58398 0.302734 8.31055 0 7.88086 0C7.46094 0 7.17773 0.302734 7.17773 0.751953L7.17773 7.51953C7.17773 7.96875 7.46094 8.26172 7.88086 8.26172Z" fill="#ffffff" fill-opacity="0.85"/>
 </g>
</svg>
