<?xml version="1.0" encoding="UTF-8" standalone="no"?>
<!DOCTYPE svg PUBLIC "-//W3C//DTD SVG 1.1//EN" "http://www.w3.org/Graphics/SVG/1.1/DTD/svg11.dtd">
<svg width="100%" height="100%" viewBox="0 0 64 64" version="1.1" xmlns="http://www.w3.org/2000/svg" xmlns:xlink="http://www.w3.org/1999/xlink" xml:space="preserve" xmlns:serif="http://www.serif.com/" style="fill-rule:evenodd;clip-rule:evenodd;stroke-linejoin:round;stroke-miterlimit:2;">
    <g transform="matrix(1,0,0,1,-4,-4)">
        <g id="rect880" transform="matrix(1,0,0,1,12,12)">
            <path d="M24,-0L14.507,5.48C14.51,5.507 14.513,5.534 14.513,5.561L14.513,14.652L19.682,17.636C19.962,17.798 20.135,18.097 20.135,18.42L20.135,42.808C20.135,43.132 19.962,43.431 19.682,43.593L18.025,44.55L23.999,48L33.486,42.523L33.486,33.65L28.434,30.732C28.153,30.57 27.981,30.272 27.981,29.949L27.981,5.561C27.981,5.48 27.992,5.401 28.012,5.325C28.074,5.097 28.223,4.898 28.434,4.777L30.354,3.668L24,-0ZM32.164,4.714L29.791,6.084L29.791,29.426L29.792,29.426L33.487,31.559L33.487,18.421C33.487,18.098 33.66,17.799 33.939,17.637L44.245,11.688L32.164,4.714ZM12.702,6.522L6.567,10.064L12.702,13.607L12.702,6.522ZM14.513,16.742L14.513,29.949C14.513,30.272 14.34,30.571 14.06,30.733L4.076,36.497L16.214,43.504L18.324,42.286L18.324,18.944L14.513,16.742ZM35.298,34.695L35.298,41.477L41.17,38.086L35.298,34.695Z" style="fill:url(#_Linear1);"/>
        </g>
        <g id="path874" transform="matrix(1,0,0,1,4,4)">
            <path d="M31.101,6.47C31.658,6.15 32.342,6.15 32.899,6.47C36.526,8.56 50.067,16.364 53.699,18.457C54.256,18.778 54.6,19.373 54.6,20.016C54.6,24.203 54.6,39.797 54.6,43.984C54.6,44.627 54.256,45.222 53.699,45.543C50.067,47.636 36.526,55.44 32.899,57.53C32.342,57.85 31.658,57.85 31.101,57.53C27.474,55.44 13.933,47.636 10.301,45.543C9.744,45.222 9.4,44.627 9.4,43.984C9.4,39.797 9.4,24.203 9.4,20.016C9.4,19.373 9.744,18.778 10.301,18.457C13.933,16.364 27.474,8.56 31.101,6.47ZM32,8L22.507,13.48C22.51,13.507 22.513,13.534 22.513,13.561L22.513,22.652L27.682,25.636C27.962,25.798 28.135,26.097 28.135,26.42L28.135,50.808C28.135,51.132 27.962,51.431 27.682,51.593L26.025,52.55L31.999,56L41.486,50.523L41.486,41.65L36.434,38.732C36.153,38.57 35.981,38.272 35.981,37.949L35.981,13.561C35.981,13.48 35.992,13.401 36.012,13.325C36.074,13.097 36.223,12.898 36.434,12.777L38.354,11.668L32,8ZM22.513,24.742L22.513,37.949C22.513,38.272 22.34,38.571 22.06,38.733L12.076,44.497L24.214,51.504L26.324,50.286L26.324,26.944L22.513,24.742ZM43.298,42.695L43.298,49.477L49.17,46.086L43.298,42.695ZM43.298,26.944L43.298,40.605L50.981,45.041L52.785,43.999L52.785,21.466L43.298,26.944ZM20.437,23.544L12.756,19.109L11.215,19.999L11.215,42.904L20.702,37.426L20.702,23.697L20.437,23.544ZM40.164,12.714L37.791,14.084L37.791,37.426L41.487,39.559L41.487,26.421C41.487,26.098 41.66,25.799 41.939,25.637L52.245,19.688L40.164,12.714ZM20.702,14.522L14.567,18.064L20.702,21.607L20.702,14.522Z" style="fill:white;fill-opacity:0.99;"/>
        </g>
        <g id="polygon28" transform="matrix(1,0,0,1,4,4)">
            <path d="M43.298,26.944L43.298,40.605L50.981,45.041L52.785,44L52.785,21.466L43.298,26.944ZM11.215,42.904L20.702,37.426L20.702,23.697L12.756,19.109L11.215,19.999L11.215,42.904Z" style="fill:rgb(25,27,40);fill-opacity:0.49;fill-rule:nonzero;"/>
        </g>
    </g>
    <defs>
        <linearGradient id="_Linear1" x1="0" y1="0" x2="1" y2="0" gradientUnits="userSpaceOnUse" gradientTransform="matrix(3.45755e-15,56.4661,-56.4661,3.45755e-15,0.811119,-5.21017)"><stop offset="0" style="stop-color:rgb(121,65,157);stop-opacity:0.49"/><stop offset="1" style="stop-color:rgb(89,45,146);stop-opacity:0.49"/></linearGradient>
    </defs>
</svg>
