<?xml version="1.0" encoding="UTF-8"?>
<!--Generator: Apple Native CoreSVG 232.5-->
<!DOCTYPE svg
PUBLIC "-//W3C//DTD SVG 1.1//EN"
       "http://www.w3.org/Graphics/SVG/1.1/DTD/svg11.dtd">
<svg version="1.1" xmlns="http://www.w3.org/2000/svg" xmlns:xlink="http://www.w3.org/1999/xlink" width="11.377" height="11.416">
 <g>
  <rect height="11.416" opacity="0" width="11.377" x="0" y="0"/>
  <path d="M11.377 8.50586L11.3672 0.888672C11.3672 0.390625 11.0449 0.0390625 10.5176 0.0390625L2.90039 0.0390625C2.41211 0.0390625 2.08008 0.419922 2.08008 0.839844C2.08008 1.25977 2.45117 1.62109 2.87109 1.62109L5.12695 1.62109L8.99414 1.48438L7.51953 2.74414L0.244141 10.0391C0.0878906 10.1953 0 10.4004 0 10.5859C0 11.0059 0.380859 11.416 0.820312 11.416C1.02539 11.416 1.2207 11.3379 1.37695 11.1816L8.66211 3.88672L9.94141 2.41211L9.77539 6.25L9.77539 8.54492C9.77539 8.95508 10.1465 9.3457 10.5762 9.3457C10.9961 9.3457 11.377 8.98438 11.377 8.50586Z" fill="#ffffff" fill-opacity="0.85"/>
 </g>
</svg>
