<?xml version="1.0" encoding="UTF-8"?>
<!--Generator: Apple Native CoreSVG 232.5-->
<!DOCTYPE svg
PUBLIC "-//W3C//DTD SVG 1.1//EN"
       "http://www.w3.org/Graphics/SVG/1.1/DTD/svg11.dtd">
<svg version="1.1" xmlns="http://www.w3.org/2000/svg" xmlns:xlink="http://www.w3.org/1999/xlink" width="7.65625" height="13.623">
 <g>
  <rect height="13.623" opacity="0" width="7.65625" x="0" y="0"/>
  <path d="M7.65625 6.80664C7.65625 6.5918 7.57812 6.39648 7.41211 6.23047L1.37695 0.234375C1.23047 0.078125 1.03516 0 0.810547 0C0.351562 0 0 0.341797 0 0.800781C0 1.01562 0.0976562 1.2207 0.234375 1.37695L5.69336 6.80664L0.234375 12.2363C0.0976562 12.3926 0 12.5879 0 12.8125C0 13.2715 0.351562 13.6133 0.810547 13.6133C1.03516 13.6133 1.23047 13.5352 1.37695 13.3789L7.41211 7.38281C7.57812 7.2168 7.65625 7.02148 7.65625 6.80664Z" fill="#ffffff" fill-opacity="0.85"/>
 </g>
</svg>
